<svg xmlns="http://www.w3.org/2000/svg" xmlns:xlink="http://www.w3.org/1999/xlink" width="500" zoomAndPan="magnify" viewBox="0 0 375 374.999991" height="500" preserveAspectRatio="xMidYMid meet" version="1.0"><defs><clipPath id="aeb857e0a1"><path d="M 7 21.027344 L 368 21.027344 L 368 225.777344 L 7 225.777344 Z M 7 21.027344 " clip-rule="nonzero"/></clipPath><clipPath id="f41a4d7ec6"><path d="M 17 158 L 368 158 L 368 225.777344 L 17 225.777344 Z M 17 158 " clip-rule="nonzero"/></clipPath></defs><g clip-path="url(#aeb857e0a1)"><path fill="#bac29f" d="M 367.429688 157.3125 C 366.582031 131.59375 346.753906 110.988281 321.835938 108.472656 C 319.199219 82.105469 296.527344 61.933594 269.65625 62.820312 C 263.664062 63.015625 257.957031 64.25 252.683594 66.328125 C 241.953125 39.515625 215.304688 20.980469 184.773438 21.984375 C 154.273438 22.988281 128.929688 43.1875 119.953125 70.597656 C 114.269531 68.945312 108.234375 68.132812 101.996094 68.339844 C 72.535156 69.308594 49 92.296875 46.636719 120.980469 C 46.503906 120.984375 46.375 120.980469 46.242188 120.984375 C 24.046875 121.714844 6.65625 140.296875 7.382812 162.484375 C 8.113281 184.675781 26.695312 202.070312 48.886719 201.339844 C 54.527344 201.152344 59.851562 199.8125 64.648438 197.554688 C 72.011719 209.945312 85.71875 218.054688 101.136719 217.542969 C 112.273438 217.179688 122.21875 212.382812 129.347656 204.910156 C 138.960938 217.671875 154.417969 225.71875 171.597656 225.152344 C 189.363281 224.566406 204.691406 214.917969 213.300781 200.796875 C 222.824219 214.320312 238.746094 222.941406 256.515625 222.359375 C 271.503906 221.863281 284.757812 214.917969 293.707031 204.277344 C 301.089844 208.027344 309.492188 210.027344 318.347656 209.734375 C 346.378906 208.8125 368.351562 185.339844 367.429688 157.3125 " fill-opacity="1" fill-rule="nonzero"/></g><path fill="#040403" d="M 72.359375 177.066406 C 72.402344 176.859375 72.429688 176.664062 72.429688 176.464844 C 72.394531 176.664062 72.386719 176.859375 72.359375 177.066406 " fill-opacity="1" fill-rule="nonzero"/><g clip-path="url(#f41a4d7ec6)"><path fill="#393738" d="M 320.726562 187.253906 C 313.109375 187.519531 294.308594 183.554688 294.308594 183.554688 C 294.308594 183.554688 282.0625 196.335938 272.65625 200.164062 C 254.503906 207.554688 229.535156 201.40625 218.757812 185.039062 C 209.613281 198.429688 193.59375 206.847656 177.378906 206.777344 C 161.160156 206.707031 145.21875 198.152344 136.191406 184.679688 C 128.660156 189.972656 121.015625 195.328125 112.375 198.5 C 103.734375 201.671875 93.824219 202.457031 85.460938 198.609375 C 77.28125 194.84375 71.207031 185.949219 72.359375 177.066406 C 70.984375 183.191406 49.21875 189.179688 44.804688 189.976562 C 35.265625 191.707031 26.863281 190.292969 17.921875 188.300781 C 25.574219 196.652344 36.679688 201.746094 48.886719 201.339844 C 54.527344 201.152344 59.851562 199.8125 64.648438 197.554688 C 72.011719 209.945312 85.71875 218.054688 101.136719 217.542969 C 112.273438 217.179688 122.21875 212.382812 129.347656 204.910156 C 138.960938 217.671875 154.417969 225.71875 171.597656 225.152344 C 189.363281 224.566406 204.691406 214.917969 213.300781 200.796875 C 222.824219 214.320312 238.746094 222.941406 256.515625 222.359375 C 271.503906 221.863281 284.757812 214.917969 293.707031 204.277344 C 301.089844 208.027344 309.492188 210.027344 318.347656 209.734375 C 345.957031 208.828125 367.675781 186.035156 367.441406 158.5625 C 365.355469 162.359375 362.84375 165.925781 359.921875 169.128906 C 349.964844 180.050781 335.5 186.738281 320.726562 187.253906 " fill-opacity="1" fill-rule="nonzero"/></g></svg>