<svg xmlns="http://www.w3.org/2000/svg" xmlns:xlink="http://www.w3.org/1999/xlink" width="500" zoomAndPan="magnify" viewBox="0 0 375 374.999991" height="500" preserveAspectRatio="xMidYMid meet" version="1.0"><defs><clipPath id="d452786c6b"><path d="M 79.007812 15 L 299.507812 15 L 299.507812 282 L 79.007812 282 Z M 79.007812 15 " clip-rule="nonzero"/></clipPath><clipPath id="c8fd4673c6"><path d="M 227 11.792969 L 250 11.792969 L 250 28 L 227 28 Z M 227 11.792969 " clip-rule="nonzero"/></clipPath></defs><path fill="#bac29f" d="M 369.285156 269.066406 C 368.4375 243.34375 348.609375 222.742188 323.695312 220.226562 C 321.058594 193.855469 298.386719 173.683594 271.511719 174.570312 C 265.519531 174.769531 259.8125 176.003906 254.542969 178.082031 C 243.808594 151.265625 217.164062 132.734375 186.628906 133.738281 C 156.128906 134.742188 130.785156 154.941406 121.8125 182.351562 C 116.125 180.695312 110.089844 179.886719 103.851562 180.09375 C 74.390625 181.0625 50.859375 204.050781 48.496094 232.730469 C 48.363281 232.734375 48.230469 232.730469 48.097656 232.734375 C 25.90625 233.464844 8.511719 252.046875 9.238281 274.238281 C 9.972656 296.425781 28.550781 313.824219 50.742188 313.09375 C 56.382812 312.90625 61.707031 311.566406 66.507812 309.308594 C 73.871094 321.699219 87.574219 329.808594 102.996094 329.296875 C 114.132812 328.929688 124.078125 324.132812 131.203125 316.660156 C 140.820312 329.421875 156.273438 337.472656 173.457031 336.90625 C 191.222656 336.320312 206.546875 326.667969 215.160156 312.550781 C 224.683594 326.070312 240.605469 334.695312 258.375 334.109375 C 273.363281 333.613281 286.617188 326.667969 295.566406 316.027344 C 302.945312 319.78125 311.347656 321.777344 320.207031 321.488281 C 348.238281 320.566406 370.207031 297.09375 369.285156 269.066406 " fill-opacity="1" fill-rule="nonzero"/><path fill="#040403" d="M 74.214844 288.816406 C 74.261719 288.613281 74.285156 288.417969 74.285156 288.214844 C 74.25 288.417969 74.242188 288.613281 74.214844 288.816406 " fill-opacity="1" fill-rule="nonzero"/><path fill="#8b887d" d="M 322.582031 299.003906 C 314.964844 299.273438 296.167969 295.304688 296.167969 295.304688 C 296.167969 295.304688 283.917969 308.089844 274.511719 311.917969 C 256.359375 319.304688 231.390625 313.160156 220.613281 296.789062 C 211.46875 310.179688 195.453125 318.597656 179.238281 318.527344 C 163.019531 318.457031 147.074219 309.902344 138.046875 296.429688 C 130.515625 301.722656 122.875 307.078125 114.230469 310.25 C 105.589844 313.421875 95.679688 314.210938 87.316406 310.363281 C 79.136719 306.597656 73.066406 297.699219 74.214844 288.816406 C 72.839844 294.945312 51.074219 300.933594 46.664062 301.730469 C 37.121094 303.460938 28.722656 302.046875 19.777344 300.054688 C 27.429688 308.40625 38.535156 313.496094 50.742188 313.09375 C 56.382812 312.90625 61.707031 311.566406 66.507812 309.308594 C 73.871094 321.699219 87.574219 329.808594 102.996094 329.296875 C 114.132812 328.929688 124.078125 324.132812 131.203125 316.660156 C 140.820312 329.421875 156.273438 337.472656 173.457031 336.90625 C 191.222656 336.320312 206.546875 326.667969 215.160156 312.550781 C 224.683594 326.070312 240.605469 334.695312 258.375 334.109375 C 273.363281 333.613281 286.617188 326.667969 295.566406 316.027344 C 302.945312 319.78125 311.347656 321.777344 320.207031 321.488281 C 347.816406 320.578125 369.53125 297.789062 369.296875 270.3125 C 367.210938 274.109375 364.703125 277.675781 361.777344 280.878906 C 351.820312 291.804688 337.355469 298.492188 322.582031 299.003906 " fill-opacity="1" fill-rule="nonzero"/><g clip-path="url(#d452786c6b)"><path fill="#393738" d="M 235.152344 38.414062 C 234.886719 37.828125 234.707031 37.183594 234.34375 36.664062 C 230.226562 30.78125 224.492188 27.519531 217.472656 26.402344 C 216.847656 26.304688 216.183594 26.367188 215.542969 26.421875 C 213.730469 26.578125 211.921875 26.800781 210.105469 26.925781 C 209.347656 26.976562 208.855469 26.65625 209.140625 25.742188 C 209.277344 25.292969 208.921875 25.050781 208.582031 24.863281 C 206.328125 23.636719 203.859375 23.371094 201.371094 23.398438 C 196.796875 23.445312 192.257812 23.863281 187.851562 25.191406 C 187.726562 25.226562 187 24.988281 187.515625 25.597656 C 187.585938 25.675781 187.773438 25.644531 187.886719 25.699219 C 188.109375 25.808594 188.40625 25.898438 188.515625 26.085938 C 188.617188 26.257812 188.597656 26.601562 188.488281 26.78125 C 188.371094 26.976562 188.101562 27.171875 187.875 27.203125 C 182.8125 27.886719 178.542969 30.363281 174.40625 33.148438 C 172.128906 34.683594 170.046875 36.449219 168.097656 38.390625 C 165.621094 40.855469 164.03125 43.828125 163.386719 47.222656 C 163.039062 49.066406 162.476562 50.726562 161.386719 52.238281 C 158.910156 55.679688 158.332031 59.648438 158.273438 63.75 C 158.253906 65.070312 158.570312 66.316406 159.199219 67.503906 C 159.742188 68.527344 160.195312 69.605469 160.632812 70.683594 C 160.691406 70.828125 160.472656 71.207031 160.296875 71.289062 C 160.113281 71.375 159.742188 71.320312 159.589844 71.179688 C 156.652344 68.476562 155.746094 64.992188 156.335938 61.234375 C 156.917969 57.511719 157.777344 53.792969 160.132812 50.671875 C 161.191406 49.273438 161.4375 47.5625 161.972656 45.96875 C 162.347656 44.859375 162.539062 43.6875 162.972656 42.609375 C 163.359375 41.652344 163.824219 40.667969 164.492188 39.902344 C 166.808594 37.25 169.207031 34.695312 172.117188 32.644531 C 174.988281 30.621094 178.03125 28.855469 180.785156 26.648438 C 183.03125 24.84375 185.699219 23.835938 188.519531 23.066406 C 192.335938 22.03125 196.222656 21.652344 200.113281 21.417969 C 202.976562 21.242188 205.835938 21.714844 208.566406 22.734375 C 209.421875 23.054688 210.285156 23.363281 211.105469 23.761719 C 212.910156 24.648438 214.820312 24.957031 216.804688 24.832031 C 219.753906 24.636719 222.472656 25.441406 225.117188 26.640625 C 225.820312 26.960938 226.578125 27.171875 227.3125 27.429688 L 227.25 27.375 C 229.25 28.832031 231.390625 30.097656 233.132812 31.890625 C 233.691406 32.464844 234.253906 32.257812 234.597656 31.425781 C 234.796875 30.941406 234.90625 30.417969 235.15625 29.96875 C 235.597656 29.171875 235.476562 28.515625 234.914062 27.832031 C 233.089844 25.597656 233.230469 23.011719 233.660156 20.394531 C 233.699219 20.160156 233.878906 19.90625 234.070312 19.753906 C 234.25 19.605469 234.542969 19.5 234.761719 19.535156 C 234.972656 19.570312 235.296875 19.804688 235.308594 19.964844 C 235.355469 20.609375 235.300781 21.257812 235.273438 21.902344 C 235.226562 23.207031 235.105469 24.515625 235.621094 25.761719 C 235.714844 25.992188 235.960938 26.347656 236.097656 26.328125 C 236.425781 26.292969 236.824219 26.144531 237.03125 25.902344 C 237.644531 25.183594 237.808594 24.378906 237.65625 23.375 C 237.386719 21.582031 237.3125 19.753906 237.277344 17.929688 C 237.265625 17.320312 237.589844 16.6875 237.84375 16.097656 C 237.917969 15.925781 238.257812 15.84375 238.496094 15.769531 C 238.785156 15.683594 239.316406 16.117188 239.304688 16.4375 C 239.257812 17.605469 239.148438 18.773438 239.144531 19.941406 C 239.144531 20.566406 239.082031 21.484375 239.441406 21.75 C 240.027344 22.195312 240.59375 21.476562 241.050781 21.035156 C 243.632812 18.558594 246.691406 16.875 249.941406 15.445312 C 251.1875 14.898438 252.183594 15.136719 253.277344 15.695312 C 256.9375 17.570312 258.71875 20.746094 259.636719 24.589844 C 260.296875 27.34375 260.234375 29.972656 259.1875 32.640625 C 258.433594 34.570312 257.910156 36.566406 257.886719 38.710938 C 257.859375 41.320312 256.4375 43.421875 254.605469 45.167969 C 253.382812 46.328125 252.058594 47.410156 250.429688 48.023438 C 249.453125 48.390625 248.5 48.816406 247.542969 49.226562 C 247.019531 49.453125 246.796875 49.960938 247 50.503906 C 247.320312 51.355469 247.644531 52.210938 248 53.050781 C 249.023438 55.472656 249.519531 58.027344 249.859375 60.613281 C 250.066406 62.175781 250.007812 63.699219 249.574219 65.257812 C 248.691406 68.386719 248.105469 71.59375 246.546875 74.519531 C 245.878906 75.777344 245.617188 77.203125 245.519531 78.664062 C 245.320312 81.699219 244.304688 84.5 242.953125 87.21875 C 239.390625 94.371094 239.234375 94.644531 233.644531 100.59375 C 232.929688 101.355469 232.214844 102.113281 231.460938 102.835938 C 230.234375 104.011719 229.773438 105.21875 230.3125 107.019531 C 230.976562 109.246094 231.253906 111.585938 231.152344 113.972656 C 230.984375 117.828125 230.136719 121.441406 228.078125 124.742188 C 227.667969 125.402344 227.300781 126.105469 227.039062 126.835938 C 226.941406 127.105469 227.109375 127.707031 227.324219 127.8125 C 228.714844 128.519531 230.144531 129.144531 231.578125 129.757812 C 234.332031 130.933594 237.03125 132.300781 239.875 133.183594 C 242.964844 134.140625 246.046875 135.148438 249.375 135.292969 C 253.28125 135.464844 257.140625 136.132812 260.808594 137.671875 C 263.203125 138.679688 265.691406 139.46875 268.167969 140.269531 C 268.886719 140.507812 269.703125 140.535156 270.472656 140.523438 C 273.933594 140.484375 276.441406 142.140625 278.308594 144.894531 C 278.964844 145.859375 279.453125 146.9375 280.03125 147.957031 C 282.847656 152.964844 285.21875 158.164062 286.933594 163.65625 C 288.097656 167.386719 289.292969 171.109375 290.539062 174.8125 C 291.792969 178.515625 292.96875 182.253906 294.464844 185.859375 C 296.636719 191.085938 297.855469 196.535156 298.675781 202.089844 C 299.09375 204.921875 299.339844 207.777344 299.570312 210.632812 C 299.679688 212.0625 299.507812 213.46875 298.808594 214.808594 C 298.273438 215.84375 298.042969 217.027344 297.539062 218.085938 C 296.359375 220.585938 295.550781 223.132812 295.464844 225.953125 C 295.414062 227.621094 294.914062 229.289062 294.492188 230.925781 C 294.03125 232.722656 293.8125 234.5 294.222656 236.332031 C 294.484375 237.507812 294.359375 238.667969 293.867188 239.777344 C 293.542969 240.507812 292.765625 241.023438 292.003906 240.910156 C 283.109375 239.605469 274.664062 241.644531 266.320312 244.394531 C 266.109375 244.460938 265.957031 244.714844 265.789062 244.898438 C 265.574219 245.140625 266 245.515625 266.566406 245.53125 C 267.738281 245.570312 268.914062 245.59375 270.089844 245.597656 C 272.179688 245.601562 274.269531 245.570312 276.351562 245.589844 C 277.796875 245.605469 279.226562 245.765625 280.492188 246.542969 C 280.65625 246.640625 280.78125 246.984375 280.742188 247.175781 C 280.703125 247.390625 280.472656 247.585938 280.292969 247.753906 C 280.210938 247.828125 280.046875 247.828125 279.917969 247.84375 C 279.792969 247.859375 279.65625 247.875 279.535156 247.855469 C 275.269531 247.066406 270.949219 247.390625 266.652344 247.296875 C 263.652344 247.230469 260.652344 247.316406 257.652344 247.332031 C 256.996094 247.332031 256.335938 247.375 255.695312 247.296875 C 251.28125 246.753906 246.84375 246.753906 242.414062 246.664062 C 240.335938 246.625 238.242188 246.695312 236.191406 246.113281 C 235.476562 245.910156 234.644531 246.128906 233.867188 246.132812 C 230.984375 246.152344 228.121094 246.003906 225.425781 244.855469 C 223.265625 243.933594 220.824219 243.828125 218.816406 242.507812 C 218.742188 242.457031 218.726562 242.261719 218.742188 242.136719 C 218.75 242.035156 218.824219 241.894531 218.910156 241.855469 C 219.136719 241.742188 219.402344 241.574219 219.621094 241.613281 C 220.902344 241.816406 222.214844 241.945312 223.4375 242.339844 C 226.554688 243.347656 229.652344 244.347656 232.992188 244.113281 C 238.554688 245.027344 244.164062 244.855469 249.769531 244.890625 C 252.117188 244.90625 254.476562 244.964844 256.792969 245.285156 C 258.578125 245.53125 260.128906 245.253906 261.679688 244.445312 C 266.109375 242.136719 270.8125 240.554688 275.710938 239.691406 C 280.203125 238.898438 284.734375 238.261719 289.328125 238.566406 C 292.203125 238.753906 292.257812 237.867188 292.050781 235.648438 C 291.839844 233.394531 292 231.277344 292.8125 229.132812 C 293.308594 227.816406 293.492188 226.339844 293.582031 224.921875 C 293.757812 222.265625 294.421875 219.753906 295.707031 217.460938 C 297.375 214.476562 297.820312 211.328125 297.402344 208.007812 C 296.351562 199.714844 294.796875 191.5625 291.496094 183.792969 C 290.019531 180.324219 288.910156 176.6875 287.828125 173.066406 C 285.914062 166.691406 283.671875 160.457031 281.097656 154.320312 C 279.722656 151.046875 277.957031 148.035156 275.996094 145.105469 C 274.90625 143.472656 273.429688 142.417969 271.480469 142.410156 C 267.714844 142.394531 264.363281 140.804688 260.949219 139.628906 C 257.457031 138.429688 253.921875 137.46875 250.292969 137.316406 C 244.664062 137.074219 239.601562 135.152344 234.566406 132.957031 C 234.089844 132.75 233.628906 132.492188 233.136719 132.351562 C 232.996094 132.3125 232.585938 132.601562 232.597656 132.710938 C 232.703125 133.746094 232.933594 134.765625 233.003906 135.796875 C 233.085938 137.113281 232.941406 138.449219 232.246094 139.585938 C 231.234375 141.238281 230.113281 142.835938 228.953125 144.394531 C 228.679688 144.761719 228.074219 144.886719 227.609375 145.09375 C 227.519531 145.136719 227.3125 145.085938 227.257812 145.011719 C 227.117188 144.816406 226.882812 144.519531 226.945312 144.375 C 227.199219 143.785156 227.433594 143.109375 227.886719 142.699219 C 229.53125 141.226562 230.074219 139.175781 230.820312 137.253906 C 231.304688 135.996094 231.144531 134.671875 230.402344 133.492188 C 229.84375 132.609375 229.257812 131.746094 228.640625 130.910156 C 228.527344 130.757812 228.140625 130.660156 227.976562 130.742188 C 227.800781 130.824219 227.636719 131.160156 227.65625 131.367188 C 227.714844 132.140625 227.875 132.90625 227.949219 133.679688 C 228.023438 134.453125 228.066406 135.230469 228.078125 136.007812 C 228.085938 136.636719 227.511719 137.265625 227.183594 137.035156 C 226.894531 136.832031 226.5625 136.550781 226.464844 136.234375 C 226.003906 134.738281 225.585938 133.230469 225.207031 131.714844 C 224.714844 129.730469 224.707031 129.253906 222.871094 130.777344 C 221.875 131.605469 220.769531 132.324219 219.640625 132.96875 C 217.285156 134.316406 214.910156 134.242188 212.59375 132.820312 C 212.390625 132.691406 212.203125 132.441406 212.136719 132.210938 C 212.082031 132.003906 212.175781 131.734375 212.253906 131.515625 C 212.289062 131.417969 212.453125 131.296875 212.554688 131.300781 C 212.9375 131.308594 213.382812 131.25 213.691406 131.421875 C 215.855469 132.59375 217.730469 131.671875 219.59375 130.660156 C 220.042969 130.410156 220.414062 130.015625 220.8125 129.683594 C 224.0625 126.953125 224.09375 126.902344 224.128906 122.722656 C 224.15625 119.722656 224.144531 116.722656 224.164062 113.722656 C 224.171875 112.546875 224.175781 111.355469 224.753906 110.289062 C 224.925781 109.976562 225.222656 109.550781 225.660156 109.824219 C 225.949219 110 226.222656 110.371094 226.285156 110.695312 C 226.375 111.191406 226.265625 111.726562 226.261719 112.246094 C 226.226562 115.234375 226.191406 118.222656 226.195312 121.210938 C 226.195312 121.582031 226.414062 121.957031 226.5625 122.316406 C 226.605469 122.417969 226.753906 122.519531 226.863281 122.53125 C 226.941406 122.535156 227.074219 122.417969 227.125 122.324219 C 228.011719 120.707031 228.554688 119.003906 228.75 117.144531 C 229.0625 114.140625 228.917969 111.160156 228.460938 108.1875 C 228.316406 107.238281 227.671875 107.003906 226.773438 107.503906 C 226.664062 107.566406 226.570312 107.667969 226.46875 107.75 C 225.628906 108.414062 224.820312 108.421875 224.027344 107.648438 C 223.753906 107.378906 223.460938 107.058594 223.109375 106.945312 C 222.804688 106.84375 222.234375 106.863281 222.085938 107.0625 C 220.394531 109.269531 218.136719 110.796875 215.90625 112.363281 C 212.910156 114.457031 209.738281 116.230469 206.488281 117.921875 C 202.210938 120.152344 197.988281 122.476562 193.542969 124.363281 C 192.527344 124.796875 192.519531 124.980469 192.628906 126.191406 C 193.042969 130.597656 193.835938 134.960938 193.667969 139.417969 C 193.601562 141.148438 193.1875 142.753906 192.644531 144.351562 C 192.585938 144.523438 192.222656 144.691406 192.019531 144.679688 C 191.847656 144.664062 191.582031 144.382812 191.566406 144.203125 C 191.535156 143.824219 191.660156 143.433594 191.679688 143.050781 C 191.746094 141.75 191.8125 140.453125 191.824219 139.152344 C 191.824219 138.992188 191.539062 138.703125 191.367188 138.6875 C 191.167969 138.675781 190.859375 138.84375 190.75 139.027344 C 189.292969 141.527344 188.378906 144.25 187.707031 147.042969 C 186.714844 151.183594 189.503906 155.09375 193.175781 156.214844 C 193.921875 156.441406 194.699219 156.574219 195.46875 156.714844 C 200.390625 157.582031 205.292969 157.898438 210.144531 156.277344 C 212.75 155.40625 215.226562 154.359375 217.3125 152.453125 C 219.613281 150.347656 222.074219 148.40625 224.472656 146.402344 C 224.667969 146.238281 224.902344 146.0625 225.140625 146.027344 C 225.363281 145.992188 225.667969 146.066406 225.839844 146.207031 C 226.011719 146.355469 226.207031 146.675781 226.160156 146.859375 C 226.058594 147.222656 225.859375 147.59375 225.601562 147.867188 C 222.796875 150.796875 219.65625 153.335938 216.421875 155.773438 C 214.710938 157.066406 212.609375 157.429688 210.648438 158.097656 C 209.296875 158.558594 207.875 158.800781 206.480469 159.121094 C 204.039062 159.683594 201.597656 159.882812 199.105469 159.386719 C 197.703125 159.109375 196.25 159.09375 194.835938 158.859375 C 190.648438 158.171875 187.675781 155.957031 186.097656 151.933594 C 185.5 150.410156 185.390625 148.898438 185.734375 147.332031 C 186.582031 143.5 187.546875 139.710938 190.0625 136.542969 C 190.464844 136.035156 190.816406 135.480469 191.125 134.910156 C 191.21875 134.734375 191.171875 134.378906 191.046875 134.226562 C 190.90625 134.0625 190.554688 133.910156 190.375 133.972656 C 188.90625 134.496094 187.425781 134.996094 186.011719 135.644531 C 184.464844 136.355469 182.972656 137.164062 181.222656 137.253906 C 181.09375 137.261719 180.949219 137.265625 180.839844 137.316406 C 177.148438 139.046875 173.246094 138.929688 169.320312 138.671875 C 168.800781 138.636719 168.269531 138.71875 167.757812 138.65625 C 164.113281 138.203125 161.523438 140.101562 159.183594 142.511719 C 158.742188 142.964844 158.46875 143.589844 158.144531 144.152344 C 155.035156 149.597656 152.339844 155.210938 150.328125 161.175781 C 149.085938 164.867188 147.386719 168.410156 145.917969 172.03125 C 144.347656 175.886719 142.828125 179.75 141.746094 183.796875 C 140.988281 186.636719 141.367188 189.203125 142.433594 191.78125 C 143.035156 193.226562 143.757812 194.617188 144.375 196.046875 C 144.582031 196.53125 144.621094 197.136719 144.089844 197.417969 C 143.84375 197.550781 143.398438 197.316406 143.042969 197.238281 C 142.796875 197.183594 142.523438 197 142.332031 197.066406 C 142.140625 197.140625 141.96875 197.433594 141.910156 197.660156 C 141.851562 197.886719 141.878906 198.328125 141.988281 198.371094 C 142.707031 198.648438 143.453125 199.011719 144.203125 199.039062 C 149.414062 199.246094 154.628906 199.382812 159.839844 199.53125 C 160.226562 199.542969 160.65625 199.554688 160.992188 199.40625 C 161.300781 199.269531 161.609375 198.953125 161.738281 198.640625 C 161.875 198.300781 161.875 197.859375 161.804688 197.484375 C 161.324219 194.902344 161.542969 192.285156 161.417969 189.691406 C 161.097656 183.15625 161.652344 176.671875 162.261719 170.183594 C 162.398438 168.765625 162.773438 167.371094 163.082031 165.972656 C 163.117188 165.808594 163.429688 165.695312 163.628906 165.585938 C 163.648438 165.574219 163.832031 165.769531 163.851562 165.882812 C 163.929688 166.394531 164.046875 166.917969 164.023438 167.429688 C 163.863281 170.679688 163.628906 173.929688 163.503906 177.183594 C 163.382812 180.179688 163.304688 183.175781 163.320312 186.171875 C 163.335938 188.503906 163.308594 190.832031 163.691406 193.171875 C 164.003906 195.078125 163.816406 197.066406 163.84375 199.019531 C 163.855469 199.671875 164.136719 200.050781 164.710938 200.066406 C 166.273438 200.117188 167.839844 200.140625 169.410156 200.183594 C 170.453125 200.210938 171.5 200.203125 172.539062 200.308594 C 175.855469 200.667969 178.027344 202.496094 179.105469 205.617188 C 179.398438 206.472656 179.625 207.367188 179.785156 208.257812 C 180.222656 210.695312 180.648438 213.132812 181 215.582031 C 181.664062 220.222656 182.25 224.875 182.921875 229.515625 C 183.40625 232.867188 183.96875 236.203125 184.519531 239.542969 C 184.605469 240.066406 184.855469 240.539062 185.464844 240.644531 C 187.769531 241.035156 190.105469 241.289062 192.375 241.835938 C 194.945312 242.457031 197.554688 242.382812 200.148438 242.578125 C 201.96875 242.714844 203.804688 242.734375 205.609375 242.976562 C 208.253906 243.324219 210.804688 243.207031 213.292969 242.148438 C 213.988281 241.851562 214.785156 241.738281 215.546875 241.671875 C 215.820312 241.648438 216.125 242.007812 216.414062 242.1875 C 216.25 242.371094 216.117188 242.609375 215.910156 242.714844 C 215.21875 243.074219 214.5 243.390625 213.789062 243.714844 C 211.359375 244.8125 208.824219 245.375 206.179688 244.847656 C 203.851562 244.382812 201.5 244.320312 199.164062 244.34375 C 195.609375 244.375 192.152344 243.832031 188.710938 243.0625 C 188.078125 242.921875 187.429688 242.835938 186.785156 242.78125 C 185.859375 242.707031 185.210938 243.253906 185.199219 244.09375 C 185.191406 244.613281 185.164062 245.140625 185.238281 245.65625 C 186.023438 251.066406 186.816406 256.480469 187.621094 261.890625 C 187.785156 262.996094 188.3125 263.457031 189.429688 263.597656 C 193.835938 264.140625 198.269531 264.171875 202.695312 264.28125 C 202.886719 264.285156 203.078125 264.109375 203.269531 264.015625 C 203.054688 263.871094 202.859375 263.660156 202.628906 263.597656 C 198.867188 262.566406 195.265625 260.996094 191.382812 260.359375 C 190.75 260.257812 190.140625 259.976562 189.558594 259.699219 C 189.378906 259.613281 189.300781 259.277344 189.222656 259.039062 C 189.125 258.761719 189.546875 258.265625 189.886719 258.234375 C 190.277344 258.203125 190.675781 258.109375 191.050781 258.171875 C 191.6875 258.277344 192.316406 258.464844 192.9375 258.644531 C 196.5625 259.695312 200.179688 260.773438 203.8125 261.785156 C 205.449219 262.238281 207.117188 262.515625 208.84375 262.277344 C 209.878906 262.136719 210.925781 262.074219 211.96875 262.042969 C 213.191406 262.011719 214.265625 261.621094 215.246094 260.925781 C 215.675781 260.625 216.113281 260.34375 216.53125 260.03125 C 218.074219 258.882812 219.765625 258.507812 221.691406 258.699219 C 224.691406 258.996094 227.632812 259.492188 230.457031 260.570312 C 231.429688 260.941406 232.449219 261.183594 233.445312 261.484375 C 240.550781 263.648438 247.667969 265.765625 254.757812 267.988281 C 258.625 269.203125 262.601562 269.886719 266.574219 270.632812 C 272.394531 271.730469 278.265625 271.484375 284.132812 271.355469 C 284.65625 271.34375 285.179688 271.308594 285.695312 271.230469 C 288.746094 270.773438 290.542969 268.867188 291.449219 266.054688 C 291.765625 265.078125 291.949219 264.015625 291.972656 262.984375 C 292.050781 259.726562 292.226562 256.449219 291.972656 253.210938 C 291.742188 250.203125 292.09375 247.234375 292 244.246094 C 291.988281 243.867188 292.105469 243.464844 292.261719 243.117188 C 292.347656 242.929688 292.625 242.8125 292.839844 242.703125 C 292.878906 242.683594 293.082031 242.851562 293.109375 242.957031 C 293.351562 244.09375 293.734375 245.230469 293.773438 246.378906 C 293.949219 252.109375 294.285156 257.839844 293.988281 263.578125 C 293.960938 264.101562 293.90625 264.625 293.925781 265.140625 C 294.050781 268.636719 289.539062 273.175781 285.757812 273.289062 C 280.9375 273.433594 276.117188 273.867188 271.3125 273.308594 C 265.617188 272.644531 259.957031 271.765625 254.476562 269.953125 C 250.765625 268.726562 246.988281 267.691406 243.230469 266.613281 C 242 266.261719 241.820312 266.429688 241.398438 267.875 C 241.328125 268.121094 241.34375 268.394531 241.265625 268.640625 C 240.984375 269.578125 240.363281 270.265625 239.46875 270.582031 C 238.246094 271.015625 236.984375 271.371094 235.714844 271.65625 C 228.46875 273.292969 221.175781 274.738281 213.972656 276.5625 C 207.527344 278.195312 201.003906 279.476562 194.558594 281.113281 C 193.8125 281.300781 193.03125 281.382812 192.257812 281.4375 C 192.078125 281.445312 191.785156 281.179688 191.71875 280.980469 C 191.660156 280.789062 191.757812 280.378906 191.898438 280.316406 C 192.714844 279.9375 193.542969 279.535156 194.40625 279.316406 C 199.339844 278.089844 204.285156 276.894531 209.234375 275.730469 C 213.164062 274.804688 217.125 274 221.046875 273.050781 C 226.742188 271.667969 232.414062 270.199219 238.09375 268.753906 C 238.171875 268.734375 238.277344 268.472656 238.25 268.445312 C 238.097656 268.292969 237.875 268.039062 237.730469 268.074219 C 235.6875 268.484375 233.648438 268.925781 231.617188 269.382812 C 226.152344 270.613281 220.640625 271.6875 215.230469 273.125 C 208.546875 274.894531 201.726562 276.066406 195.058594 277.871094 C 194.183594 278.105469 193.269531 278.203125 192.367188 278.300781 C 192.164062 278.324219 191.738281 278.058594 191.746094 277.949219 C 191.773438 277.613281 191.871094 277.097656 192.097656 276.996094 C 192.925781 276.625 193.800781 276.355469 194.679688 276.125 C 196.699219 275.597656 198.722656 275.097656 200.757812 274.632812 C 204.695312 273.734375 208.648438 272.90625 212.582031 271.980469 C 216.765625 270.992188 220.9375 269.9375 225.109375 268.898438 C 226.875 268.460938 228.636719 268 230.398438 267.539062 C 230.507812 267.511719 230.59375 267.386719 230.6875 267.308594 C 230.546875 267.175781 230.414062 266.941406 230.261719 266.929688 C 227.9375 266.75 225.648438 266.375 223.277344 266.730469 C 221.496094 267 219.613281 266.882812 217.808594 266.667969 C 212.34375 266.027344 206.851562 266.375 201.378906 266.0625 C 199.691406 265.964844 198.011719 265.984375 196.316406 265.746094 C 194.132812 265.445312 191.890625 265.480469 189.703125 266.027344 C 188.808594 266.25 188.445312 266.714844 188.582031 267.742188 C 189.070312 271.359375 189.589844 274.972656 190.0625 278.589844 C 190.144531 279.214844 190.136719 279.886719 189.996094 280.496094 C 189.9375 280.757812 189.453125 280.984375 189.121094 281.085938 C 188.96875 281.132812 188.640625 280.871094 188.515625 280.671875 C 188.316406 280.351562 188.140625 279.976562 188.089844 279.609375 C 187.75 277.15625 187.46875 274.695312 187.121094 272.246094 C 186.921875 270.824219 186.601562 269.425781 186.394531 268.011719 C 186.019531 265.4375 185.703125 262.847656 185.332031 260.269531 C 184.738281 256.140625 183.9375 252.035156 183.5625 247.890625 C 183.105469 242.816406 181.914062 237.871094 181.285156 232.832031 C 180.6875 228.046875 180.042969 223.269531 179.378906 218.496094 C 178.898438 215.015625 178.417969 211.53125 177.804688 208.074219 C 177.582031 206.8125 177.039062 205.589844 176.5 204.417969 C 176.046875 203.4375 175.210938 202.785156 174.082031 202.636719 C 172.789062 202.46875 171.5 202.25 170.203125 202.160156 C 168.507812 202.042969 166.8125 202.007812 165.113281 201.988281 C 162.375 201.960938 159.65625 201.820312 156.921875 201.527344 C 153.6875 201.179688 150.398438 201.375 147.148438 201.121094 C 140.640625 200.605469 134.101562 200.78125 127.605469 200.257812 C 120.84375 199.714844 114.066406 199.601562 107.3125 198.996094 C 105.5 198.835938 103.660156 198.933594 101.835938 198.886719 C 100.664062 198.855469 99.472656 198.886719 98.320312 198.703125 C 93.652344 197.972656 88.9375 198.242188 84.253906 198.011719 C 83.738281 197.984375 83.210938 198.058594 82.695312 198.125 C 81.757812 198.253906 80.980469 199.066406 81.023438 199.984375 C 81.089844 201.414062 81.167969 202.851562 81.371094 204.261719 C 82.144531 209.542969 82.96875 214.816406 83.777344 220.09375 C 84.351562 223.828125 85.125 227.539062 85.460938 231.296875 C 85.796875 235.0625 86.421875 238.773438 87 242.503906 C 88.035156 249.195312 88.980469 255.898438 89.945312 262.601562 C 90.425781 265.957031 90.882812 269.3125 91.332031 272.671875 C 91.402344 273.183594 91.453125 273.722656 91.351562 274.21875 C 91.285156 274.535156 90.972656 274.953125 90.6875 275.035156 C 90.433594 275.101562 89.984375 274.835938 89.777344 274.589844 C 89.546875 274.3125 89.425781 273.894531 89.375 273.515625 C 88.511719 267.460938 87.667969 261.394531 86.808594 255.335938 C 86.222656 251.210938 85.609375 247.089844 85.003906 242.964844 C 84.96875 242.707031 84.882812 242.453125 84.867188 242.195312 C 84.367188 235.429688 82.679688 228.839844 82 222.089844 C 81.320312 215.351562 80.152344 208.671875 79.21875 201.960938 C 79.09375 201.066406 79 200.140625 79.070312 199.242188 C 79.175781 197.789062 80.410156 196.550781 81.847656 196.386719 C 82.882812 196.269531 83.9375 196.195312 84.976562 196.238281 C 88.359375 196.382812 91.738281 196.273438 95.132812 196.695312 C 98.738281 197.140625 102.414062 197.066406 106.0625 197.144531 C 108.152344 197.1875 110.226562 197.191406 112.296875 197.589844 C 113.039062 197.734375 113.855469 197.640625 114.617188 197.511719 C 114.90625 197.460938 115.175781 197.03125 115.359375 196.71875 C 115.480469 196.519531 115.460938 196.214844 115.453125 195.960938 C 115.328125 193.097656 115.261719 190.230469 115.039062 187.375 C 114.796875 184.257812 114.535156 181.136719 114.039062 178.058594 C 113.601562 175.328125 113.527344 172.605469 113.582031 169.871094 C 113.644531 166.808594 113.039062 163.941406 111.746094 161.164062 C 109.929688 157.269531 108.199219 153.332031 106.515625 149.378906 C 105.902344 147.945312 105.238281 146.453125 105.078125 144.933594 C 104.742188 141.753906 102.90625 139.410156 101.199219 136.957031 C 100.234375 135.574219 99.242188 134.203125 98.214844 132.859375 C 97.078125 131.371094 96.386719 129.683594 95.992188 127.898438 C 95.402344 125.242188 94.425781 122.644531 94.625 119.84375 C 94.757812 117.945312 96.425781 116.851562 98.210938 117.582031 C 99.316406 118.035156 100.261719 118.625 100.734375 119.855469 C 101.675781 122.28125 102.773438 124.652344 103.71875 127.078125 C 104.644531 129.464844 106.421875 131.167969 108.175781 132.90625 C 108.328125 133.058594 108.679688 133.117188 108.90625 133.0625 C 109.347656 132.957031 109.394531 132.589844 109.339844 132.175781 C 108.875 128.558594 108.335938 124.945312 107.992188 121.316406 C 107.699219 118.179688 108.015625 115.078125 109.082031 112.066406 C 109.6875 110.351562 110.03125 108.554688 110.589844 106.824219 C 110.976562 105.632812 111.921875 104.9375 113.09375 104.53125 C 113.917969 104.242188 114.640625 104.449219 115.269531 104.984375 C 116.324219 105.875 116.851562 107.066406 116.90625 108.414062 C 116.949219 109.453125 116.882812 110.503906 116.746094 111.535156 C 116.542969 113.082031 116.402344 114.667969 115.953125 116.148438 C 114.96875 119.375 116.101562 122.296875 116.960938 125.28125 C 116.988281 125.382812 117.117188 125.457031 117.195312 125.539062 C 117.359375 125.363281 117.601562 125.210938 117.671875 125 C 117.796875 124.636719 117.847656 124.238281 117.871094 123.851562 C 117.972656 122.296875 118.039062 120.742188 118.148438 119.1875 C 118.289062 117.191406 118.910156 115.355469 120.15625 113.769531 C 120.816406 112.929688 121.15625 111.972656 121.550781 111 C 122.476562 108.710938 123.539062 106.472656 124.613281 104.242188 C 124.820312 103.808594 125.292969 103.476562 125.703125 103.179688 C 125.859375 103.070312 126.226562 103.117188 126.421875 103.226562 C 126.613281 103.335938 126.859375 103.652344 126.820312 103.816406 C 126.636719 104.5625 126.445312 105.328125 126.113281 106.015625 C 124.472656 109.414062 122.738281 112.773438 121.148438 116.191406 C 120.660156 117.234375 120.363281 118.414062 120.230469 119.554688 C 119.863281 122.65625 119.648438 125.777344 119.328125 128.882812 C 119.25 129.652344 119.039062 130.410156 118.816406 131.160156 C 118.589844 131.929688 117.5 132.132812 116.917969 131.503906 C 116.570312 131.128906 116.179688 130.71875 116.019531 130.253906 C 115.6875 129.273438 115.480469 128.246094 115.253906 127.230469 C 114.878906 125.578125 114.664062 123.878906 114.128906 122.28125 C 113.609375 120.738281 113.542969 119.234375 113.757812 117.667969 C 114.136719 114.828125 114.523438 111.988281 114.847656 109.140625 C 114.921875 108.511719 114.796875 107.855469 114.699219 107.222656 C 114.621094 106.683594 113.917969 106.054688 113.679688 106.242188 C 113.394531 106.464844 113.078125 106.730469 112.9375 107.042969 C 110.457031 112.636719 109.210938 118.390625 110.386719 124.542969 C 111 127.734375 110.886719 131.042969 111.726562 134.214844 C 111.816406 134.5625 111.652344 134.984375 111.578125 135.363281 C 111.492188 135.796875 110.785156 136.257812 110.375 136.15625 C 110 136.066406 109.582031 136.019531 109.265625 135.824219 C 107.054688 134.425781 105.015625 132.800781 103.375 130.75 C 102.8125 130.046875 102.183594 129.25 102.003906 128.410156 C 101.488281 125.960938 100.015625 123.890625 99.449219 121.464844 C 99.285156 120.761719 98.691406 120.125 98.179688 119.5625 C 98 119.367188 97.453125 119.414062 97.109375 119.492188 C 96.941406 119.53125 96.804688 119.890625 96.738281 120.125 C 96.667969 120.367188 96.652344 120.652344 96.703125 120.898438 C 97.222656 123.3125 97.65625 125.761719 98.335938 128.128906 C 98.953125 130.257812 99.914062 132.289062 101.417969 133.972656 C 102.996094 135.742188 104.089844 137.824219 105.300781 139.828125 C 105.898438 140.816406 106.230469 141.96875 106.628906 143.0625 C 107.429688 145.265625 108.164062 147.492188 108.988281 149.683594 C 109.90625 152.117188 110.890625 154.53125 111.851562 156.945312 C 112.046875 157.433594 112.183594 157.953125 112.464844 158.382812 C 114.8125 161.890625 115.453125 165.847656 115.382812 169.929688 C 115.308594 174.125 116.144531 178.226562 116.417969 182.382812 C 116.707031 186.796875 117.285156 191.191406 117.730469 195.59375 C 117.882812 197.105469 118.421875 197.644531 119.941406 197.777344 C 120.203125 197.800781 120.464844 197.808594 120.726562 197.816406 C 122.292969 197.867188 123.859375 197.886719 125.421875 197.96875 C 127.898438 198.09375 130.367188 198.265625 132.835938 198.402344 C 133.355469 198.429688 133.898438 198.492188 134.394531 198.375 C 134.710938 198.296875 135.175781 197.925781 135.183594 197.675781 C 135.21875 196.648438 135.242188 195.585938 135.019531 194.585938 C 134.339844 191.523438 134.105469 188.410156 133.699219 185.316406 C 133.261719 181.96875 133.007812 178.605469 132.496094 175.265625 C 132.007812 172.058594 131.570312 168.835938 131.003906 165.640625 C 130.65625 163.714844 131.097656 162.0625 132.464844 160.613281 C 133.710938 159.289062 134.707031 157.75 136.1875 156.621094 C 136.878906 156.097656 137.429688 155.269531 137.808594 154.46875 C 138.972656 151.996094 140.027344 149.472656 141.113281 146.964844 C 141.265625 146.609375 141.441406 146.230469 141.46875 145.851562 C 141.671875 142.949219 142.5625 140.261719 143.949219 137.714844 C 144.007812 137.609375 144.023438 137.449219 143.992188 137.335938 C 143.917969 137.101562 143.855469 136.804688 143.679688 136.667969 C 143.511719 136.542969 143.144531 136.476562 142.980469 136.570312 C 140.671875 137.894531 138.65625 139.453125 137.957031 142.246094 C 137.675781 143.367188 137.195312 144.476562 136.605469 145.476562 C 135.546875 147.273438 133.519531 147.832031 131.488281 146.980469 C 131.160156 146.84375 130.792969 146.511719 130.683594 146.195312 C 129.972656 144.101562 129.242188 142.003906 128.710938 139.859375 C 128.503906 139.03125 128.664062 138.046875 128.863281 137.183594 C 129.070312 136.304688 129.730469 135.519531 129.84375 134.644531 C 130.183594 132.128906 131.535156 130.703125 133.976562 130.132812 C 134.828125 129.933594 135.597656 128.980469 136.5 129.484375 C 137.132812 129.832031 137.519531 130.617188 138.019531 131.207031 C 138.796875 132.117188 139.671875 132.902344 140.890625 133.117188 C 141.230469 133.175781 141.726562 133.078125 141.949219 132.851562 C 142.128906 132.671875 142.167969 132.042969 141.996094 131.867188 C 141.003906 130.816406 140.214844 129.640625 139.425781 128.433594 C 138.789062 127.460938 137.9375 126.628906 137.152344 125.765625 C 136.691406 125.261719 136.101562 125.011719 135.394531 125.144531 C 134.5 125.3125 133.582031 125.398438 132.703125 125.640625 C 130.304688 126.300781 129.828125 126.070312 128.644531 128.265625 C 128.105469 129.265625 127.171875 130.070312 126.347656 130.898438 C 125.769531 131.484375 124.734375 131.261719 124.375 130.492188 C 124.105469 129.914062 123.800781 129.285156 123.785156 128.671875 C 123.675781 124.488281 123.867188 120.347656 125.371094 116.347656 C 126.289062 113.914062 127.035156 111.417969 127.824219 108.9375 C 128.34375 107.308594 128.714844 105.667969 128.164062 103.945312 C 128.097656 103.726562 128.464844 103.132812 128.652344 103.125 C 128.96875 103.105469 129.445312 103.332031 129.597656 103.605469 C 129.910156 104.152344 130.191406 104.792969 130.230469 105.410156 C 130.292969 106.308594 130.253906 107.253906 130.039062 108.125 C 129.273438 111.285156 128.683594 114.503906 127.359375 117.5 C 126.609375 119.199219 126.222656 120.945312 126.28125 122.804688 C 126.328125 124.105469 126.289062 125.414062 126.300781 126.714844 C 126.300781 126.839844 126.390625 127.066406 126.429688 127.066406 C 126.660156 127.050781 126.996094 127.058594 127.097656 126.917969 C 128.652344 124.714844 130.976562 124.007812 133.457031 123.589844 C 133.972656 123.5 134.527344 123.539062 135.003906 123.355469 C 136.925781 122.625 138.234375 123.328125 139.335938 124.929688 C 140.359375 126.433594 141.496094 127.863281 142.667969 129.261719 C 143.523438 130.28125 144.324219 131.304688 144.359375 132.691406 C 144.382812 133.710938 144.941406 134.34375 145.648438 134.96875 C 146.398438 135.625 146.691406 136.457031 146.21875 137.421875 C 144.496094 140.957031 143.585938 144.75 142.539062 148.511719 C 142.089844 150.132812 141.320312 151.667969 140.695312 153.242188 C 139.816406 155.449219 138.613281 157.429688 136.753906 158.980469 C 136.0625 159.5625 135.425781 160.234375 134.863281 160.945312 C 132.824219 163.519531 132.871094 163.527344 133.363281 166.984375 C 134.183594 172.773438 134.953125 178.566406 135.757812 184.355469 C 136.242188 187.835938 136.742188 191.316406 137.265625 194.789062 C 137.402344 195.6875 137.644531 196.570312 137.863281 197.457031 C 137.996094 197.976562 138.699219 198.511719 138.984375 198.316406 C 139.296875 198.105469 139.648438 197.847656 139.796875 197.527344 C 140.070312 196.945312 140.183594 196.285156 140.402344 195.675781 C 140.871094 194.394531 140.824219 193.160156 140.371094 191.859375 C 139.90625 190.515625 139.4375 189.183594 139.34375 187.707031 C 139.179688 185.039062 139.59375 182.523438 140.574219 180.058594 C 142.164062 176.070312 143.722656 172.0625 145.296875 168.070312 C 147.015625 163.707031 148.679688 159.320312 150.476562 154.992188 C 152.027344 151.269531 153.550781 147.519531 155.769531 144.121094 C 156.625 142.816406 157.539062 141.542969 158.523438 140.332031 C 159 139.742188 159.640625 139.210938 160.3125 138.855469 C 163.363281 137.25 166.574219 136.078125 170.074219 136.8125 C 172.992188 137.425781 175.691406 136.785156 178.503906 136.167969 C 182.371094 135.316406 185.84375 133.523438 189.480469 132.125 C 190.742188 131.640625 191.265625 130.671875 191.128906 129.339844 C 191.0625 128.695312 191.066406 128.027344 190.898438 127.40625 C 190.578125 126.261719 190.09375 125.203125 188.800781 124.785156 C 188.457031 124.671875 188.175781 124.359375 187.878906 124.117188 C 187.625 123.910156 187.714844 123.191406 187.996094 123.097656 C 188.238281 123.015625 188.480469 122.84375 188.71875 122.851562 C 191.96875 122.949219 194.828125 121.667969 197.632812 120.269531 C 203.820312 117.191406 209.859375 113.828125 215.84375 110.371094 C 217.332031 109.511719 218.527344 108.476562 219.519531 107.003906 C 221.136719 104.609375 222.4375 102.078125 223.597656 99.464844 C 223.921875 98.742188 224.175781 98.054688 224.785156 97.503906 C 225.015625 97.296875 225.160156 96.742188 225.050781 96.460938 C 224.207031 94.234375 224.066406 91.882812 223.652344 89.578125 C 223.277344 87.496094 223.429688 85.417969 223.484375 83.339844 C 223.496094 82.984375 223.769531 82.632812 223.953125 82.296875 C 224.003906 82.203125 224.195312 82.109375 224.289062 82.136719 C 224.507812 82.199219 224.71875 82.316406 224.898438 82.453125 C 224.988281 82.523438 224.988281 82.695312 225.035156 82.8125 C 225.324219 83.601562 224.46875 84.847656 225.632812 85.175781 C 226.386719 85.386719 226.78125 84.28125 227.304688 83.734375 C 228.3125 82.675781 229.460938 81.828125 230.886719 81.464844 C 231.230469 81.378906 231.660156 81.480469 232.003906 81.617188 C 232.1875 81.6875 232.289062 82.003906 232.382812 82.230469 C 232.417969 82.316406 232.363281 82.496094 232.292969 82.566406 C 232.109375 82.742188 231.914062 82.945312 231.6875 83.023438 C 229.445312 83.792969 228.191406 85.6875 226.792969 87.378906 C 225.640625 88.777344 225.46875 90.464844 225.929688 92.203125 C 227.171875 96.894531 227.375 97.011719 231.035156 94.0625 C 234.933594 90.925781 236.742188 86.117188 235.160156 81.089844 C 234.710938 79.664062 233.585938 79.09375 232.101562 79.464844 C 230.660156 79.824219 229.53125 80.703125 228.355469 81.53125 C 227.46875 82.15625 227.25 82.15625 226.488281 81.148438 C 225.589844 79.957031 224.476562 78.976562 223.09375 78.632812 C 220.40625 77.964844 217.945312 76.773438 215.414062 75.742188 C 214.519531 75.375 213.496094 75.894531 213.300781 76.835938 C 213.003906 78.238281 212.78125 79.65625 212.484375 81.058594 C 212.132812 82.726562 211.417969 84.242188 210.628906 85.757812 C 209.210938 88.488281 206.808594 89.957031 204.195312 91.214844 C 203.851562 91.382812 203.449219 91.464844 203.066406 91.503906 C 200.734375 91.75 198.398438 91.980469 196.0625 92.203125 C 195.804688 92.230469 195.53125 92.222656 195.285156 92.15625 C 193.234375 91.609375 191.210938 90.746094 189.914062 89.140625 C 188.394531 87.261719 186.71875 85.339844 186.410156 82.714844 C 186.289062 81.6875 185.859375 80.703125 185.71875 79.675781 C 185.464844 77.824219 184.859375 77.648438 183.046875 77.699219 C 182.917969 77.703125 182.785156 77.710938 182.65625 77.722656 C 181.382812 77.832031 180.714844 78.433594 180.585938 79.628906 C 180.511719 80.273438 180.535156 80.933594 180.4375 81.578125 C 180.167969 83.375 179.984375 85.199219 179.519531 86.953125 C 179.007812 88.898438 177.835938 90.46875 175.96875 91.394531 C 175.804688 91.480469 175.445312 91.367188 175.285156 91.226562 C 175.128906 91.085938 174.988281 90.71875 175.0625 90.574219 C 175.5 89.78125 176.046875 89.050781 176.480469 88.253906 C 178.507812 84.53125 179.054688 80.644531 177.691406 76.5625 C 177.34375 75.53125 176.714844 74.699219 175.796875 74.152344 C 173.636719 72.863281 171.367188 71.894531 168.765625 72.222656 C 166.949219 72.449219 165.164062 72.824219 163.550781 73.75 C 162.695312 74.238281 162.222656 74.980469 162.296875 76.003906 C 162.328125 76.394531 162.339844 76.792969 162.421875 77.167969 C 163.308594 81.238281 164.199219 85.304688 165.097656 89.367188 C 165.183594 89.75 165.351562 90.109375 165.476562 90.476562 C 165.792969 91.4375 166.425781 91.96875 167.441406 92.132812 C 169.148438 92.40625 170.820312 92.25 172.503906 91.949219 C 172.765625 91.898438 173.144531 92.226562 173.382812 92.464844 C 173.460938 92.542969 173.320312 92.980469 173.164062 93.117188 C 170.671875 95.246094 166.203125 94.738281 164.078125 92.953125 C 160.964844 90.339844 158.621094 87.40625 158.054688 83.242188 C 157.878906 81.980469 157.269531 80.773438 156.867188 79.546875 C 156.507812 78.453125 156.613281 77.417969 157.621094 76.757812 C 158.859375 75.9375 159.609375 74.703125 160.519531 73.609375 C 161.664062 72.242188 163.042969 71.390625 164.78125 71.050781 C 167.085938 70.601562 169.378906 70.039062 171.75 70.582031 C 174.597656 71.234375 177.234375 72.296875 179.222656 74.542969 C 179.898438 75.304688 180.667969 75.582031 181.660156 75.390625 C 182.429688 75.246094 183.207031 75.113281 183.988281 75.074219 C 185.261719 75.007812 186.160156 74.625 186.679688 73.277344 C 187.089844 72.21875 187.90625 71.304688 188.613281 70.375 C 188.816406 70.101562 189.257812 69.992188 189.601562 69.839844 C 189.6875 69.800781 189.84375 69.863281 189.941406 69.925781 C 190.046875 69.996094 190.214844 70.140625 190.191406 70.203125 C 190.054688 70.695312 189.953125 71.21875 189.691406 71.640625 C 188.554688 73.484375 188.152344 75.496094 188.175781 77.621094 C 188.1875 78.535156 188.246094 79.449219 188.207031 80.363281 C 188.097656 83.023438 189.355469 85.101562 191.011719 87.011719 C 191.523438 87.601562 192.144531 88.101562 192.625 88.714844 C 193.25 89.523438 194.070312 89.761719 195.023438 89.769531 C 196.851562 89.789062 198.679688 89.886719 200.503906 89.820312 C 204.042969 89.691406 206.699219 87.945312 208.476562 84.976562 C 210.183594 82.121094 210.957031 78.957031 210.855469 75.628906 C 210.820312 74.605469 210.5625 73.574219 210.289062 72.582031 C 210.074219 71.816406 209.535156 71.234375 208.8125 70.832031 C 205.546875 69 202.109375 68.035156 198.332031 68.667969 C 196.40625 68.988281 194.476562 69.28125 192.539062 69.550781 C 192.324219 69.582031 191.871094 69.363281 191.878906 69.292969 C 191.917969 68.949219 191.980469 68.539062 192.199219 68.296875 C 192.441406 68.019531 192.839844 67.855469 193.203125 67.722656 C 197.503906 66.164062 201.863281 65.878906 206.261719 67.230469 C 208.019531 67.769531 209.714844 68.519531 210.960938 69.921875 C 211.769531 70.835938 212.699219 71.453125 213.820312 71.878906 C 217.832031 73.417969 221.839844 74.980469 225.839844 76.546875 C 226.445312 76.78125 227.09375 76.980469 227.617188 77.351562 C 228.789062 78.171875 229.992188 78.300781 231.332031 77.875 C 231.816406 77.722656 232.359375 77.65625 232.863281 77.691406 C 235.707031 77.898438 237.300781 79.492188 237.5625 82.480469 C 237.984375 87.308594 236.507812 91.488281 233.027344 94.894531 C 231.917969 95.980469 230.777344 97.046875 229.359375 97.789062 C 228.101562 98.449219 227.988281 99 228.476562 100.351562 C 228.605469 100.714844 228.769531 101.089844 229.003906 101.390625 C 229.121094 101.539062 229.53125 101.664062 229.644531 101.582031 C 231.859375 99.964844 233.820312 98.054688 235.578125 95.960938 C 238.714844 92.222656 240.488281 87.695312 242.617188 83.382812 C 243.175781 82.246094 243.414062 80.871094 243.480469 79.59375 C 243.660156 76.40625 244.660156 73.46875 245.832031 70.554688 C 246.464844 68.984375 246.992188 67.371094 247.585938 65.785156 C 248.144531 64.277344 248.304688 62.714844 248.035156 61.160156 C 247.140625 55.988281 245.839844 50.960938 242.515625 46.714844 C 242.195312 46.304688 241.875 45.875 241.648438 45.414062 C 240.152344 42.414062 237.714844 40.289062 235.09375 38.339844 L 235.125 38.394531 Z M 258.136719 28.617188 C 258.113281 24.230469 256.777344 21.089844 254.28125 18.402344 C 253.507812 17.570312 252.578125 17.28125 251.46875 17.375 C 249.882812 17.515625 248.421875 18.0625 247.0625 18.839844 C 243.027344 21.140625 239.695312 24.171875 237.609375 28.394531 C 237.035156 29.554688 236.640625 30.800781 236.121094 31.992188 C 235.464844 33.503906 235.382812 34.820312 236.542969 36.265625 C 237.351562 37.277344 237.992188 38.441406 239.074219 39.171875 C 240.636719 40.234375 241.59375 41.777344 242.585938 43.296875 C 243.082031 44.054688 243.488281 44.875 243.96875 45.644531 C 245.421875 47.980469 246.09375 47.699219 247.773438 46.957031 C 249.074219 46.378906 250.464844 45.921875 251.625 45.128906 C 253.949219 43.546875 255.8125 41.449219 255.933594 38.515625 C 256.027344 36.386719 256.582031 34.445312 257.195312 32.464844 C 257.652344 30.988281 257.929688 29.460938 258.132812 28.613281 Z M 133.660156 145.167969 C 133.9375 144.953125 134.355469 144.78125 134.515625 144.476562 C 134.933594 143.6875 135.289062 142.855469 135.578125 142.007812 C 136.078125 140.523438 136.710938 139.128906 137.765625 137.949219 C 138.449219 137.1875 139.117188 136.414062 139.789062 135.648438 C 139.441406 134.355469 137.929688 134.328125 137.304688 133.410156 C 136.261719 131.886719 135.152344 131.917969 133.691406 132.792969 C 132.730469 133.367188 132.078125 133.972656 131.925781 135.128906 C 131.828125 135.882812 131.585938 136.652344 131.222656 137.3125 C 130.597656 138.453125 130.726562 139.507812 131.191406 140.640625 C 131.578125 141.59375 131.816406 142.605469 132.171875 143.570312 C 132.351562 144.042969 132.628906 144.492188 132.933594 144.898438 C 133.054688 145.0625 133.378906 145.070312 133.664062 145.167969 Z M 230.675781 265.082031 C 231.585938 265.082031 232.496094 265.082031 233.40625 265.082031 C 234.183594 265.078125 234.964844 265.042969 235.746094 265.050781 C 236.132812 265.054688 236.265625 264.929688 236.105469 264.605469 C 236.050781 264.496094 235.941406 264.394531 235.832031 264.34375 C 233.121094 263.042969 230.15625 262.53125 227.34375 261.558594 C 225.464844 260.910156 223.570312 260.679688 221.601562 260.628906 C 220.105469 260.59375 218.757812 260.890625 217.574219 261.789062 C 216.203125 262.828125 214.6875 263.53125 213.007812 263.910156 C 212.789062 263.960938 212.601562 264.152344 212.398438 264.277344 C 212.65625 264.296875 212.914062 264.339844 213.171875 264.332031 C 219.019531 264.207031 224.835938 264.894531 230.675781 265.082031 Z M 160.417969 78.730469 C 160.316406 78.917969 160.148438 79.101562 160.117188 79.300781 C 159.71875 82.34375 160.308594 85.1875 161.886719 87.816406 C 161.996094 87.992188 162.308594 88.046875 162.53125 88.160156 C 162.617188 87.933594 162.820312 87.679688 162.777344 87.476562 C 162.195312 84.71875 161.582031 81.964844 160.964844 79.210938 C 160.9375 79.09375 160.851562 78.972656 160.761719 78.890625 C 160.675781 78.8125 160.546875 78.785156 160.417969 78.730469 Z M 227.292969 103.964844 C 226.921875 102.796875 226.574219 101.703125 226.21875 100.613281 C 226.1875 100.507812 226.042969 100.34375 225.984375 100.359375 C 225.75 100.417969 225.398438 100.46875 225.316406 100.632812 C 224.75 101.792969 224.144531 102.941406 223.757812 104.160156 C 223.554688 104.804688 224.171875 105.320312 224.730469 105.683594 C 225.230469 106.011719 225.738281 105.949219 226.121094 105.535156 C 226.539062 105.082031 226.871094 104.546875 227.296875 103.964844 Z M 227.292969 103.964844 " fill-opacity="1" fill-rule="nonzero"/></g><path fill="#393738" d="M 260.1875 206.824219 C 259.515625 211.308594 259.324219 216.011719 257.945312 220.523438 C 257.566406 221.753906 256.964844 222.921875 256.5 224.132812 C 255.996094 225.441406 254.808594 226.46875 254.914062 228.050781 C 254.929688 228.34375 254.496094 228.664062 254.261719 228.96875 C 253.796875 229.582031 253.226562 230.136719 252.886719 230.8125 C 251.578125 233.4375 251.695312 234.195312 253.695312 236.371094 C 255.105469 237.902344 256.597656 239.363281 257.992188 240.90625 C 258.40625 241.367188 258.632812 242.003906 258.917969 242.574219 C 259.066406 242.875 258.597656 243.390625 258.246094 243.304688 C 257.878906 243.21875 257.417969 243.183594 257.179688 242.941406 C 255.347656 241.105469 253.570312 239.207031 251.757812 237.347656 C 249.785156 235.328125 249.539062 233.078125 250.640625 230.53125 C 251.089844 229.492188 252.265625 228.527344 251.734375 227.339844 C 251.277344 226.320312 250.296875 225.527344 249.546875 224.636719 C 249.378906 224.4375 249.195312 224.25 249.011719 224.066406 C 246.671875 221.671875 245.730469 218.894531 246.273438 215.511719 C 246.578125 213.613281 246.71875 211.636719 246.277344 209.691406 C 246.164062 209.191406 246.179688 208.652344 246.175781 208.132812 C 246.140625 203.953125 245.617188 199.871094 244.367188 195.839844 C 243.070312 191.667969 243.296875 187.355469 244.132812 183.097656 C 244.929688 179.015625 245.785156 174.9375 246.632812 170.863281 C 246.847656 169.84375 247.125 168.839844 247.402344 167.839844 C 247.636719 167.003906 248.316406 166.273438 248.582031 166.515625 C 249.054688 166.945312 248.808594 167.445312 248.722656 167.945312 C 248.058594 171.785156 247.398438 175.628906 246.753906 179.480469 C 246.34375 181.914062 245.914062 184.347656 245.589844 186.796875 C 245.351562 188.601562 245.363281 190.421875 245.691406 192.238281 C 246.199219 195.054688 246.679688 197.871094 247.570312 200.601562 C 248.222656 202.59375 248.480469 204.652344 248.46875 206.753906 C 248.453125 210.007812 248.582031 213.265625 248.433594 216.511719 C 248.316406 219.011719 248.976562 221.011719 250.785156 222.816406 C 253.421875 225.445312 253.707031 225.476562 255.21875 222.117188 C 256.671875 218.871094 257.214844 215.398438 257.726562 211.917969 C 258.050781 209.730469 258.359375 207.542969 258.707031 205.359375 C 258.734375 205.167969 259.027344 205.007812 259.222656 204.859375 C 259.445312 204.683594 259.96875 205.117188 260.015625 205.511719 C 260.0625 205.898438 260.113281 206.285156 260.183594 206.824219 Z M 260.1875 206.824219 " fill-opacity="1" fill-rule="nonzero"/><path fill="#393738" d="M 184.277344 283.34375 C 179.070312 283.042969 173.859375 282.859375 168.667969 282.394531 C 165.289062 282.09375 161.910156 281.90625 158.523438 281.757812 C 156.441406 281.667969 154.375 281.253906 152.292969 281.199219 C 142.246094 280.941406 132.257812 279.855469 122.230469 279.28125 C 119.371094 279.117188 116.519531 278.886719 113.65625 278.722656 C 107.675781 278.382812 101.703125 277.820312 95.730469 277.328125 C 95.230469 277.285156 94.742188 277.078125 94.257812 276.921875 C 94.152344 276.890625 94 276.714844 94.019531 276.652344 C 94.09375 276.414062 94.183594 276.058594 94.351562 276.007812 C 94.949219 275.808594 95.59375 275.585938 96.207031 275.613281 C 99.199219 275.753906 102.191406 275.964844 105.183594 276.171875 C 108.296875 276.386719 111.410156 276.710938 114.53125 276.828125 C 119.742188 277.03125 124.914062 277.832031 130.144531 277.742188 C 131.441406 277.722656 132.738281 278.003906 134.039062 278.109375 C 135.597656 278.234375 137.15625 278.347656 138.722656 278.40625 C 141.71875 278.515625 144.726562 278.398438 147.675781 279.105469 C 148.054688 279.195312 148.453125 279.222656 148.84375 279.21875 C 152.632812 279.203125 156.394531 279.589844 160.164062 279.875 C 166.402344 280.355469 172.65625 280.558594 178.898438 280.929688 C 181.503906 281.082031 184.09375 281.351562 186.691406 281.597656 C 187.0625 281.636719 187.449219 281.792969 187.765625 281.992188 C 187.945312 282.101562 188.078125 282.417969 188.074219 282.644531 C 188.074219 282.855469 187.886719 283.222656 187.75 283.242188 C 186.597656 283.378906 185.4375 283.453125 184.28125 283.542969 C 184.28125 283.476562 184.28125 283.414062 184.28125 283.347656 Z M 184.277344 283.34375 " fill-opacity="1" fill-rule="nonzero"/><path fill="#393738" d="M 161.445312 122.289062 C 161.730469 123.546875 161.949219 124.824219 162.300781 126.0625 C 163.25 129.375 165.714844 130.839844 168.925781 131.269531 C 169.820312 131.386719 170.746094 131.21875 171.65625 131.25 C 171.839844 131.257812 172.105469 131.539062 172.15625 131.738281 C 172.207031 131.945312 172.117188 132.300781 171.960938 132.421875 C 171.554688 132.730469 171.109375 133.058594 170.628906 133.179688 C 165.613281 134.4375 160.738281 130.382812 159.941406 126.789062 C 158.941406 122.277344 159.441406 117.984375 161.679688 113.925781 C 162.746094 111.992188 164 110.175781 164.890625 108.132812 C 165.429688 106.886719 165.773438 105.734375 165.457031 104.375 C 165.109375 102.855469 164.839844 101.3125 164.636719 99.769531 C 164.449219 98.351562 164.363281 96.925781 164.316406 95.5 C 164.304688 95.148438 164.621094 94.722656 165.089844 94.808594 C 165.425781 94.875 165.898438 95.066406 166 95.324219 C 166.234375 95.910156 166.375 96.574219 166.382812 97.207031 C 166.417969 100.9375 167.710938 104.367188 168.929688 107.796875 C 169.265625 108.746094 169.949219 109.625 170.640625 110.382812 C 171.695312 111.535156 172.773438 112.71875 174.042969 113.597656 C 177.460938 115.972656 180.523438 118.871094 184.328125 120.683594 C 184.761719 120.890625 185.097656 121.363281 185.402344 121.769531 C 185.515625 121.921875 185.496094 122.289062 185.386719 122.46875 C 185.269531 122.65625 184.976562 122.832031 184.753906 122.835938 C 184.382812 122.839844 183.945312 122.8125 183.636719 122.632812 C 178.902344 119.859375 174.363281 116.800781 170.394531 112.988281 C 169.457031 112.089844 168.597656 111.097656 167.78125 110.082031 C 166.875 108.964844 166.238281 109.164062 165.742188 110.175781 C 164.710938 112.28125 163.703125 114.402344 162.757812 116.546875 C 161.964844 118.355469 161.480469 120.246094 161.449219 122.285156 Z M 161.445312 122.289062 " fill-opacity="1" fill-rule="nonzero"/><path fill="#393738" d="M 171.625 57.351562 C 171.734375 56.328125 171.847656 55.929688 171.792969 55.554688 C 171.746094 55.234375 171.5 54.941406 171.347656 54.636719 C 171.140625 54.761719 170.84375 54.839844 170.734375 55.023438 C 169.257812 57.480469 167.75 59.917969 167.066406 62.746094 C 166.699219 64.253906 166.289062 65.746094 165.855469 67.230469 C 165.808594 67.375 165.410156 67.519531 165.214844 67.480469 C 165.011719 67.441406 164.769531 67.207031 164.695312 67.003906 C 164.570312 66.640625 164.484375 66.234375 164.519531 65.855469 C 164.597656 64.953125 164.652344 64.019531 164.90625 63.15625 C 166.363281 58.230469 168.574219 53.695312 172.121094 49.914062 C 172.929688 49.050781 173.722656 48.210938 174.222656 47.128906 C 176.675781 41.820312 180.628906 37.667969 184.679688 33.597656 C 186.242188 32.03125 187.855469 30.5 189.808594 29.414062 C 189.996094 29.308594 190.289062 29.367188 190.527344 29.386719 C 190.828125 29.410156 190.792969 30.042969 190.46875 30.382812 C 190.199219 30.667969 189.9375 30.960938 189.652344 31.226562 C 189.175781 31.671875 188.667969 32.082031 188.203125 32.535156 C 184.914062 35.707031 181.777344 39.023438 179.046875 42.683594 C 175.425781 47.539062 173.488281 52.96875 174.066406 59.109375 C 174.164062 60.132812 174.441406 61.152344 174.734375 62.140625 C 175.394531 64.386719 176.605469 66.132812 179.078125 66.691406 C 179.574219 66.800781 180.039062 67.09375 180.46875 67.371094 C 180.617188 67.46875 180.726562 67.820312 180.664062 67.996094 C 180.589844 68.203125 180.347656 68.398438 180.132812 68.496094 C 179.910156 68.597656 179.617188 68.636719 179.375 68.59375 C 176.363281 68.023438 174.097656 66.449219 172.898438 63.566406 C 171.988281 61.378906 171.597656 59.082031 171.625 57.351562 Z M 171.625 57.351562 " fill-opacity="1" fill-rule="nonzero"/><path fill="#393738" d="M 226.039062 69.945312 C 225.753906 70.085938 225.523438 70.304688 225.308594 70.289062 C 224.9375 70.261719 224.535156 70.15625 224.210938 69.976562 C 221.699219 68.585938 219.402344 66.875 217.085938 65.191406 C 215.121094 63.757812 214.054688 61.648438 212.960938 59.585938 C 212.417969 58.558594 212.035156 57.425781 211.726562 56.300781 C 210.78125 52.910156 210.242188 49.425781 209.898438 45.9375 C 209.574219 42.695312 209.292969 39.464844 208.480469 36.300781 C 208.421875 36.058594 208.417969 35.769531 208.484375 35.535156 C 208.554688 35.300781 208.796875 34.914062 208.882812 34.9375 C 209.226562 35.023438 209.636719 35.160156 209.835938 35.425781 C 210.054688 35.710938 210.105469 36.152344 210.167969 36.53125 C 210.667969 39.480469 211.183594 42.429688 211.640625 45.386719 C 211.957031 47.445312 212.144531 49.519531 212.472656 51.574219 C 212.863281 54.027344 213.617188 56.367188 214.691406 58.625 C 216.078125 61.542969 218.21875 63.738281 220.824219 65.546875 C 222.429688 66.660156 224.03125 67.765625 225.597656 68.933594 C 225.855469 69.125 225.902344 69.605469 226.042969 69.949219 Z M 226.039062 69.945312 " fill-opacity="1" fill-rule="nonzero"/><path fill="#393738" d="M 195.3125 30.625 C 195.480469 30.78125 195.816406 30.96875 195.796875 31.101562 C 195.511719 33.152344 195.257812 35.210938 194.84375 37.238281 C 193.957031 41.585938 192.539062 45.765625 190.746094 49.820312 C 189.785156 51.992188 189.417969 54.296875 189.042969 56.59375 C 188.746094 58.429688 189.152344 60.214844 189.980469 61.890625 C 190.496094 62.9375 191.023438 63.984375 191.503906 65.046875 C 191.582031 65.226562 191.484375 65.679688 191.371094 65.71875 C 191.050781 65.832031 190.632812 65.90625 190.328125 65.789062 C 189.988281 65.664062 189.667969 65.359375 189.445312 65.054688 C 188.203125 63.34375 187.394531 61.460938 187.195312 59.328125 C 186.929688 56.441406 187.074219 53.644531 188.238281 50.914062 C 189.460938 48.050781 190.421875 45.070312 191.617188 42.195312 C 192.832031 39.285156 193.328125 36.207031 194.0625 33.179688 C 194.246094 32.429688 194.414062 31.671875 194.660156 30.945312 C 194.714844 30.78125 195.085938 30.726562 195.308594 30.621094 Z M 195.3125 30.625 " fill-opacity="1" fill-rule="nonzero"/><path fill="#393738" d="M 200.589844 40.84375 C 200.855469 39.578125 201.128906 38.183594 201.460938 36.804688 C 201.492188 36.660156 201.859375 36.578125 202.082031 36.515625 C 202.125 36.503906 202.28125 36.703125 202.292969 36.816406 C 202.359375 37.324219 202.4375 37.839844 202.433594 38.351562 C 202.394531 42.003906 202.679688 45.574219 203.601562 49.164062 C 204.480469 52.582031 205.550781 55.890625 206.898438 59.144531 C 208.339844 62.640625 210.550781 65.402344 213.914062 67.210938 C 214.582031 67.570312 215.148438 68.128906 215.714844 68.648438 C 215.839844 68.761719 215.847656 69.175781 215.738281 69.320312 C 215.609375 69.488281 215.25 69.644531 215.066406 69.585938 C 211.628906 68.449219 208.703125 66.578125 206.902344 63.347656 C 205.894531 61.539062 205.042969 59.632812 204.277344 57.707031 C 202.691406 53.703125 201.441406 49.613281 201.226562 45.257812 C 201.160156 43.835938 200.824219 42.429688 200.585938 40.847656 Z M 200.589844 40.84375 " fill-opacity="1" fill-rule="nonzero"/><path fill="#393738" d="M 198.386719 38.558594 C 198.789062 42.773438 197.863281 46.851562 197.085938 50.949219 C 196.355469 54.792969 195.660156 58.644531 196.207031 62.585938 C 196.3125 63.355469 196.488281 64.117188 196.5625 64.886719 C 196.578125 65.070312 196.324219 65.378906 196.128906 65.445312 C 195.929688 65.515625 195.585938 65.433594 195.421875 65.292969 C 195.136719 65.046875 194.835938 64.726562 194.734375 64.382812 C 194.472656 63.515625 194.160156 62.617188 194.152344 61.726562 C 194.136719 58.738281 194.0625 55.769531 194.730469 52.785156 C 195.613281 48.855469 196.449219 44.894531 196.746094 40.847656 C 196.917969 38.515625 197.117188 36.191406 196.925781 33.847656 C 196.886719 33.347656 197.019531 32.828125 197.109375 32.324219 C 197.125 32.238281 197.332031 32.113281 197.425781 32.128906 C 197.652344 32.167969 197.976562 32.21875 198.0625 32.375 C 198.238281 32.707031 198.371094 33.105469 198.375 33.476562 C 198.410156 35.171875 198.390625 36.863281 198.390625 38.554688 Z M 198.386719 38.558594 " fill-opacity="1" fill-rule="nonzero"/><g clip-path="url(#c8fd4673c6)"><path fill="#393738" d="M 227.304688 27.425781 C 226.71875 24.589844 227.277344 22.019531 229.070312 19.730469 C 229.308594 19.425781 229.539062 19.105469 229.808594 18.824219 C 230.074219 18.542969 230.347656 18.226562 230.683594 18.0625 C 232.933594 16.972656 234.425781 14.890625 236.542969 13.644531 C 238.007812 12.78125 239.570312 12.207031 241.332031 12.226562 C 242.363281 12.238281 243.394531 11.984375 244.433594 11.949219 C 245.878906 11.898438 247.300781 12.105469 248.527344 12.933594 C 248.917969 13.195312 249.171875 13.691406 249.402344 14.121094 C 249.457031 14.21875 249.132812 14.679688 249.0625 14.664062 C 247.042969 14.179688 245.003906 13.957031 242.925781 13.867188 C 240.058594 13.75 237.554688 14.457031 235.507812 16.570312 C 234.792969 17.308594 233.96875 17.972656 233.09375 18.507812 C 230.476562 20.117188 228.976562 22.390625 228.683594 25.453125 C 228.648438 25.839844 228.578125 26.222656 228.472656 26.59375 C 228.296875 27.195312 227.742188 27.253906 227.246094 27.375 L 227.308594 27.425781 Z M 227.304688 27.425781 " fill-opacity="1" fill-rule="nonzero"/></g><path fill="#393738" d="M 265.222656 180.222656 C 265.21875 184.054688 264.945312 187.144531 263.945312 190.136719 C 263.332031 191.964844 263.320312 193.992188 262.15625 195.632812 C 262.039062 195.792969 261.714844 195.828125 261.472656 195.867188 C 261.414062 195.878906 261.269531 195.683594 261.257812 195.570312 C 261.203125 195.195312 261.113281 194.800781 261.175781 194.4375 C 261.355469 193.417969 261.585938 192.40625 261.824219 191.398438 C 262.027344 190.515625 262.238281 189.636719 262.484375 188.765625 C 263.902344 183.644531 263.621094 178.492188 262.753906 173.332031 C 262.03125 169.042969 262.164062 167.847656 262.6875 168.285156 C 264.089844 169.4375 263.851562 171.28125 264.3125 172.835938 C 265.101562 175.480469 265.085938 178.210938 265.226562 180.222656 Z M 265.222656 180.222656 " fill-opacity="1" fill-rule="nonzero"/><path fill="#393738" d="M 202.914062 79.855469 C 202.816406 81.835938 202.640625 83.210938 201.429688 84.230469 C 200.546875 84.980469 199.636719 85.089844 198.566406 84.722656 C 197.464844 84.34375 196.902344 83.554688 196.679688 82.492188 C 196.519531 81.75 197.082031 81.355469 197.546875 80.898438 C 198.25 80.210938 198.269531 80.144531 197.644531 79.457031 C 197.1875 78.957031 196.710938 78.464844 196.980469 77.792969 C 197.453125 76.609375 198.496094 76.09375 199.691406 75.894531 C 200.558594 75.746094 201.742188 76.453125 202.15625 77.4375 C 202.546875 78.371094 202.773438 79.371094 202.917969 79.851562 Z M 202.914062 79.855469 " fill-opacity="1" fill-rule="nonzero"/><path fill="#393738" d="M 176.320312 82.285156 C 176.199219 82.984375 176.128906 83.628906 175.964844 84.253906 C 175.492188 86.078125 173.6875 86.832031 171.945312 85.964844 C 170.953125 85.472656 170.734375 84.289062 171.480469 83.386719 C 172.480469 82.175781 172.503906 82.171875 171.714844 81.238281 C 171.464844 80.941406 171.191406 80.660156 170.984375 80.335938 C 170.65625 79.828125 170.925781 78.988281 171.484375 78.636719 C 172.886719 77.761719 175.089844 78.472656 175.730469 80.070312 C 176.015625 80.78125 176.132812 81.566406 176.320312 82.289062 Z M 176.320312 82.285156 " fill-opacity="1" fill-rule="nonzero"/><path fill="#393738" d="M 182.953125 32.992188 C 182.910156 33.230469 182.953125 33.585938 182.8125 33.683594 C 181.855469 34.339844 180.878906 34.976562 179.875 35.554688 C 175.152344 38.292969 170.457031 41.0625 166.46875 44.855469 C 166.347656 44.972656 165.945312 44.984375 165.824219 44.875 C 165.679688 44.746094 165.566406 44.320312 165.65625 44.21875 C 167.054688 42.691406 168.347656 41.023438 169.941406 39.722656 C 173.476562 36.847656 177.484375 34.675781 181.578125 32.695312 C 181.796875 32.589844 182.09375 32.558594 182.328125 32.609375 C 182.554688 32.660156 182.746094 32.863281 182.953125 32.996094 Z M 182.953125 32.992188 " fill-opacity="1" fill-rule="nonzero"/><path fill="#393738" d="M 206.082031 75.269531 C 206.066406 76.191406 205.226562 76.746094 204.671875 76.480469 C 203.863281 76.097656 203.078125 75.65625 202.261719 75.28125 C 201.199219 74.785156 200.078125 74.558594 198.894531 74.523438 C 197.566406 74.480469 196.339844 74.644531 195.238281 75.46875 C 194.734375 75.84375 194.125 76.089844 193.546875 76.355469 C 193.199219 76.515625 192.453125 75.816406 192.582031 75.40625 C 192.730469 74.9375 192.902344 74.339844 193.265625 74.105469 C 197.453125 71.386719 201.394531 71.445312 205.480469 74.246094 C 205.84375 74.492188 205.980469 75.078125 206.085938 75.265625 Z M 206.082031 75.269531 " fill-opacity="1" fill-rule="nonzero"/><path fill="#393738" d="M 176.28125 77.132812 C 176.265625 77.546875 175.542969 78.191406 175.210938 78.058594 C 174.734375 77.867188 174.261719 77.65625 173.808594 77.410156 C 171.996094 76.425781 170.296875 76.839844 168.699219 77.882812 C 168.058594 78.300781 167.566406 78.945312 166.925781 79.367188 C 166.6875 79.527344 166.183594 79.433594 165.867188 79.296875 C 165.421875 79.105469 165.222656 78.367188 165.421875 77.964844 C 165.59375 77.621094 165.738281 77.246094 165.980469 76.953125 C 168.289062 74.144531 172.359375 73.539062 175.410156 75.53125 C 176.011719 75.921875 176.3125 76.476562 176.285156 77.132812 Z M 176.28125 77.132812 " fill-opacity="1" fill-rule="nonzero"/><path fill="#393738" d="M 223.933594 61.609375 C 224.113281 61.445312 224.28125 61.15625 224.472656 61.144531 C 225.757812 61.0625 227.054688 60.949219 228.34375 61.015625 C 231.941406 61.210938 235.253906 60.347656 238.375 58.59375 C 238.820312 58.34375 239.300781 58.144531 239.773438 57.949219 C 240.203125 57.769531 241.125 58.117188 241.046875 58.425781 C 240.960938 58.777344 240.804688 59.230469 240.53125 59.398438 C 235.710938 62.328125 230.476562 63.34375 224.902344 62.582031 C 224.574219 62.535156 224.269531 62.214844 223.976562 61.984375 C 223.910156 61.929688 223.945312 61.738281 223.933594 61.609375 Z M 223.933594 61.609375 " fill-opacity="1" fill-rule="nonzero"/><path fill="#393738" d="M 228.699219 57.351562 C 226.773438 57.519531 224.621094 57.175781 222.5625 56.304688 C 221.984375 56.058594 221.457031 55.652344 220.953125 55.261719 C 220.828125 55.164062 220.863281 54.828125 220.878906 54.605469 C 220.886719 54.523438 221.078125 54.378906 221.167969 54.394531 C 221.800781 54.5 222.472656 54.542969 223.058594 54.777344 C 226.308594 56.097656 229.570312 56.03125 232.898438 55.089844 C 234 54.777344 235.175781 54.703125 236.324219 54.574219 C 236.507812 54.554688 236.746094 54.808594 236.917969 54.976562 C 237.128906 55.179688 236.878906 55.789062 236.539062 55.941406 C 234.140625 57.023438 231.621094 57.46875 228.695312 57.351562 Z M 228.699219 57.351562 " fill-opacity="1" fill-rule="nonzero"/><path fill="#393738" d="M 235.113281 38.359375 C 234.710938 38.863281 234.28125 39.542969 233.574219 39.324219 C 229.136719 37.957031 224.621094 38.441406 220.113281 38.691406 C 219.980469 38.699219 219.808594 38.738281 219.734375 38.671875 C 219.558594 38.519531 219.332031 38.3125 219.324219 38.125 C 219.316406 37.917969 219.484375 37.613281 219.664062 37.507812 C 220.820312 36.835938 222.125 36.722656 223.414062 36.667969 C 226.261719 36.539062 229.09375 36.667969 231.910156 37.195312 C 233.089844 37.417969 234.128906 37.855469 235.148438 38.417969 L 235.113281 38.363281 Z M 235.113281 38.359375 " fill-opacity="1" fill-rule="nonzero"/><path fill="#393738" d="M 183.402344 108.949219 C 182.996094 108.851562 181.863281 108.625 180.769531 108.289062 C 180.460938 108.195312 180.195312 107.800781 180.027344 107.484375 C 179.953125 107.347656 180.160156 107.042969 180.28125 106.839844 C 180.335938 106.75 180.507812 106.652344 180.597656 106.675781 C 183.871094 107.515625 186.980469 106.828125 190.050781 105.710938 C 190.203125 105.65625 190.660156 105.925781 190.65625 106.039062 C 190.648438 106.378906 190.59375 106.886719 190.367188 107.027344 C 188.464844 108.175781 186.433594 109 183.40625 108.949219 Z M 183.402344 108.949219 " fill-opacity="1" fill-rule="nonzero"/><path fill="#393738" d="M 235.445312 75.507812 C 235.140625 75.390625 234.902344 75.300781 234.667969 75.210938 C 234.390625 75.097656 234.289062 74.390625 234.542969 74.199219 C 234.84375 73.96875 235.160156 73.609375 235.480469 73.59375 C 238.171875 73.460938 240.488281 72.339844 242.726562 70.976562 C 242.941406 70.847656 243.207031 70.792969 243.457031 70.742188 C 243.5625 70.71875 243.761719 70.761719 243.789062 70.828125 C 243.878906 71.03125 243.929688 71.265625 243.9375 71.484375 C 243.941406 71.59375 243.839844 71.730469 243.746094 71.820312 C 241.386719 74.015625 238.628906 75.316406 235.445312 75.507812 Z M 235.445312 75.507812 " fill-opacity="1" fill-rule="nonzero"/><path fill="#393738" d="M 181.460938 98.613281 C 181.425781 98.722656 181.410156 98.851562 181.347656 98.933594 C 181.269531 99.027344 181.132812 99.160156 181.046875 99.144531 C 179.183594 98.777344 177.660156 97.90625 176.878906 96.097656 C 176.773438 95.855469 177.03125 95.394531 177.234375 95.109375 C 177.308594 95 177.785156 95.015625 177.933594 95.144531 C 179.097656 96.15625 180.230469 97.203125 181.359375 98.253906 C 181.441406 98.328125 181.433594 98.496094 181.46875 98.613281 Z M 181.460938 98.613281 " fill-opacity="1" fill-rule="nonzero"/><path fill="#393738" d="M 180.355469 91.246094 C 180.371094 92.289062 180.019531 93.226562 178.960938 93.707031 C 178.6875 93.828125 178.234375 93.6875 177.921875 93.542969 C 177.773438 93.472656 177.65625 93.074219 177.714844 92.875 C 178 91.859375 178.59375 91.027344 179.421875 90.371094 C 179.507812 90.308594 179.703125 90.28125 179.785156 90.335938 C 179.980469 90.457031 180.15625 90.621094 180.296875 90.800781 C 180.367188 90.886719 180.335938 91.050781 180.359375 91.246094 Z M 180.355469 91.246094 " fill-opacity="1" fill-rule="nonzero"/><path fill="#393738" d="M 239.4375 35.855469 C 239.324219 35.8125 239.195312 35.800781 239.105469 35.730469 C 239.007812 35.65625 238.871094 35.523438 238.878906 35.425781 C 238.910156 35.046875 238.902344 34.625 239.070312 34.304688 C 241.253906 30.257812 244.230469 26.90625 248.03125 24.300781 C 249.007812 23.632812 250.050781 23.113281 251.292969 23.382812 C 251.511719 23.429688 251.800781 23.613281 251.863281 23.796875 C 251.929688 23.988281 251.8125 24.292969 251.679688 24.488281 C 251.546875 24.691406 251.324219 24.878906 251.097656 24.980469 C 246.535156 26.972656 243.296875 30.390625 240.738281 34.542969 C 240.410156 35.082031 240.167969 35.707031 239.4375 35.847656 Z M 239.4375 35.855469 " fill-opacity="1" fill-rule="nonzero"/><path fill="#393738" d="M 250.746094 29.515625 C 250.648438 29.753906 250.621094 30.085938 250.445312 30.207031 C 248.402344 31.59375 246.347656 32.964844 244.253906 34.285156 C 244.0625 34.402344 243.570312 34.132812 243.277344 33.949219 C 243.199219 33.898438 243.292969 33.453125 243.414062 33.253906 C 243.613281 32.925781 243.84375 32.574219 244.152344 32.363281 C 245.550781 31.414062 246.953125 30.464844 248.410156 29.605469 C 248.941406 29.289062 249.613281 29.191406 250.238281 29.070312 C 250.375 29.046875 250.574219 29.359375 250.746094 29.519531 Z M 250.746094 29.515625 " fill-opacity="1" fill-rule="nonzero"/><path fill="#393738" d="M 252.90625 35.074219 C 252.519531 35.351562 252.160156 35.746094 251.710938 35.902344 C 250.015625 36.5 248.367188 37.175781 246.847656 38.167969 C 245.757812 38.882812 244.804688 38.996094 244.839844 38.53125 C 244.898438 37.816406 245.378906 37.382812 245.890625 37.011719 C 247.457031 35.871094 249.164062 34.980469 251 34.382812 C 251.457031 34.234375 252.003906 34.304688 252.492188 34.371094 C 252.628906 34.386719 252.722656 34.746094 252.902344 35.074219 Z M 252.90625 35.074219 " fill-opacity="1" fill-rule="nonzero"/></svg>